<svg width="720" height="650" viewBox="0 0 685 650" fill="none" xmlns="http://www.w3.org/2000/svg">
<path d="M512.5 579C496.5 564 404.5 556 394 650H413H579H685V541.5V485.5V465V421C685 518.129 626 509.978 604 506C557 497.5 499.5 511.5 512.5 579Z" fill="url(#paint0_linear_197_3)"/>
<path d="M207.5 71C223.5 86 315.5 94 326 1.52588e-05H307L141 1.52588e-05L0.5 1.52588e-05C0.5 14.5 19 37.5 35.0001 37.5V108.5L35.0001 164.5V185V229C35.0001 131.871 94.0001 140.021 116 144C163 152.5 220.5 138.5 207.5 71Z" fill="url(#paint1_linear_197_3)"/>
<defs>
<linearGradient id="paint0_linear_197_3" x1="422.5" y1="706.5" x2="697" y2="509" gradientUnits="userSpaceOnUse">
<stop stop-color="#612C46" stop-opacity="0.54"/>
<stop offset="1" stop-color="#A98496" stop-opacity="0.12"/>
</linearGradient>
<linearGradient id="paint1_linear_197_3" x1="297.5" y1="-56.5002" x2="23.0002" y2="141" gradientUnits="userSpaceOnUse">
<stop stop-color="#612C46" stop-opacity="0.54"/>
<stop offset="1" stop-color="#A98496" stop-opacity="0.12"/>
</linearGradient>
</defs>
</svg>

